<svg font-family="-apple-system-body, ui-sans-serif, -apple-system, system-ui, &quot;Segoe UI&quot;, Helvetica, &quot;Apple Color Emoji&quot;, Arial, sans-serif, &quot;Segoe UI Emoji&quot;, &quot;Segoe UI Symbol&quot;" font-weight="400" data-d-component="svg" fill="currentColor" style="color:rgb(255, 255, 255)" viewBox="0 0 320 260" width="100%" xmlns="http://www.w3.org/2000/svg"><defs><marker id="arrow" markerWidth="10" markerHeight="10" refX="5" refY="5" orient="auto-start-reverse"><path d="M 0 0 L 10 5 L 0 10 z" fill="#64748B"/></marker></defs><rect width="320" height="260" rx="12" fill="#FFFFFF"/><rect x="60" y="12" width="200" height="28" rx="8" fill="#DBEAFE" stroke="#1D4ED8"/><text x="160" y="23" font-size="9" font-family="Arial" font-weight="bold" text-anchor="middle" fill="#1D4ED8">Usuário</text><text x="160" y="32" font-size="7" font-family="Arial" text-anchor="middle" fill="#1D4ED8">Importa XML</text><path d="M160 40 V 48" stroke="#64748B" stroke-width="1.5" stroke-dasharray="3 3" marker-end="url(#arrow)"/><rect x="60" y="52" width="200" height="28" rx="8" fill="#E0F2FE" stroke="#075985"/><text x="160" y="63" font-size="9" font-family="Arial" font-weight="bold" text-anchor="middle" fill="#075985">notas.py</text><text x="160" y="72" font-size="7" font-family="Arial" text-anchor="middle" fill="#075985">Controla fluxo</text><path d="M160 80 V 88" stroke="#64748B" stroke-width="1.5" stroke-dasharray="3 3" marker-end="url(#arrow)"/><rect x="60" y="92" width="200" height="28" rx="8" fill="#D1FAE5" stroke="#047857"/><text x="160" y="103" font-size="9" font-family="Arial" font-weight="bold" text-anchor="middle" fill="#047857">xml_import.py</text><text x="160" y="112" font-size="7" font-family="Arial" text-anchor="middle" fill="#047857">Lê XML</text><path d="M160 120 V 128" stroke="#64748B" stroke-width="1.5" stroke-dasharray="3 3" marker-end="url(#arrow)"/><rect x="60" y="132" width="200" height="28" rx="8" fill="#F3E8FF" stroke="#6D28D9"/><text x="160" y="143" font-size="9" font-family="Arial" font-weight="bold" text-anchor="middle" fill="#6D28D9">database.py</text><text x="160" y="152" font-size="7" font-family="Arial" text-anchor="middle" fill="#6D28D9">Salva dados</text><path d="M160 160 V 168" stroke="#64748B" stroke-width="1.5" stroke-dasharray="3 3" marker-end="url(#arrow)"/><rect x="60" y="172" width="200" height="28" rx="8" fill="#FCE7F3" stroke="#BE185D"/><text x="160" y="183" font-size="9" font-family="Arial" font-weight="bold" text-anchor="middle" fill="#BE185D">SQLite</text><text x="160" y="192" font-size="7" font-family="Arial" text-anchor="middle" fill="#BE185D">Atualiza estoque</text><path d="M160 200 V 208" stroke="#64748B" stroke-width="1.5" stroke-dasharray="3 3" marker-end="url(#arrow)"/><rect x="60" y="212" width="200" height="28" rx="8" fill="#FEF3C7" stroke="#92400E"/><text x="160" y="223" font-size="9" font-family="Arial" font-weight="bold" text-anchor="middle" fill="#92400E">Interface</text><text x="160" y="232" font-size="7" font-family="Arial" text-anchor="middle" fill="#92400E">Refresh Tree</text></svg>